<?xml version="1.0" encoding="utf-8"?>
<!-- Generator: Adobe Illustrator 21.0.2, SVG Export Plug-In . SVG Version: 6.00 Build 0)  -->
<svg version="1.1" id="Ebene_1" xmlns="http://www.w3.org/2000/svg" xmlns:xlink="http://www.w3.org/1999/xlink" x="0px" y="0px"
	 viewBox="0 0 219.5 75.5" style="enable-background:new 0 0 219.5 75.5;" xml:space="preserve">
<style type="text/css">
	.st0{fill:#CC0000;}
	.st1{fill-rule:evenodd;clip-rule:evenodd;}
	.st2{fill:#FFFFFF;}
</style>
<polygon class="st0" points="25.2,46.3 42.2,46.3 42.2,63.9 25.2,63.9 25.2,46.3 "/>
<polygon class="st0" points="50.2,46.3 216.2,46.3 216.2,72.3 50.2,72.3 50.2,46.3 "/>
<polygon class="st0" points="2.5,20 7.5,20 7.5,37.7 2.5,37.7 2.5,20 "/>
<polygon class="st0" points="11,8 13.9,8 13.9,25.7 11,25.7 11,8 "/>
<polygon class="st0" points="18.1,2.5 19.5,2.5 19.5,20.2 18.1,20.2 18.1,2.5 "/>
<polygon class="st0" points="11,34.9 19.5,34.9 19.5,52.5 11,52.5 11,34.9 "/>
<polygon points="118.7,24.8 139.3,24.8 139.3,28.6 122.5,28.6 122.5,31.8 138.5,31.8 138.5,35.1 122.5,35.1 122.5,38.5 139.3,38.5 
	139.3,42.4 118.7,42.4 118.7,24.8 "/>
<polygon points="67.7,24.8 88.2,24.8 88.2,28.6 71.5,28.6 71.5,31.8 87.5,31.8 87.5,35.1 71.5,35.1 71.5,38.5 88.2,38.5 88.2,42.4 
	67.7,42.4 67.7,24.8 "/>
<polygon points="42.2,24.8 62.7,24.8 62.7,28.6 54.2,28.6 54.2,42.4 50.6,42.4 50.6,28.6 42.2,28.6 42.2,24.8 "/>
<polygon points="144.3,24.5 144.3,42.4 147.9,42.4 147.9,31.6 164.8,42.6 164.8,24.7 161.3,24.7 161.3,35.5 144.3,24.5 "/>
<polygon points="93.3,24.8 97.1,24.8 97.1,38.5 113.8,38.5 113.8,42.4 93.3,42.4 93.3,24.8 "/>
<path class="st1" d="M173.5,28.6h13.1v9.9h-13.1V28.6L173.5,28.6z M173.9,24.8h12.3c2.3,0,4.2,1.9,4.2,4.2v9.3
	c0,2.3-1.9,4.2-4.2,4.2h-12.3c-2.3,0-4.2-1.9-4.2-4.2v-9.3C169.8,26.6,171.6,24.8,173.9,24.8L173.9,24.8z"/>
<polygon points="195.3,24.8 215.8,24.8 215.8,28.6 207.3,28.6 207.3,42.4 203.8,42.4 203.8,28.6 195.3,28.6 195.3,24.8 "/>
<g>
	<path class="st2" d="M57.4,54.9h5.7c3.1,0,4.5,1.8,4.5,4.6c0,2.8-1.4,4.6-4.3,4.6h-5.9V54.9z M59.9,62.3h2.8c1.6,0,2.4-1,2.4-2.9
		c0-1.7-0.7-2.7-2.6-2.7h-2.5V62.3z"/>
	<path class="st2" d="M68.9,54.9h2.5v9.2h-2.5V54.9z"/>
	<path class="st2" d="M73.1,54.9h8.6v1.7h-6.1v1.9h5.8v1.7h-5.8v2.1h6.1v1.7h-8.6V54.9z"/>
	<path class="st2" d="M94.5,62.2h-4.2l-0.7,1.9h-2.7l4-9.2h3l4,9.2h-2.7L94.5,62.2z M92.3,56.9l-1.4,3.6h2.9L92.3,56.9z"/>
	<path class="st2" d="M98.6,54.9h2.5v7.3h5.6v1.8h-8.1V54.9z"/>
	<path class="st2" d="M114.7,62.2h-4.2l-0.7,1.9h-2.7l4-9.2h3l4,9.2h-2.7L114.7,62.2z M112.6,56.9l-1.4,3.6h2.9L112.6,56.9z"/>
	<path class="st2" d="M118.9,54.9h6.7c2.5,0,3,1.6,3,2.5c0,1.1-0.5,1.8-1.5,2.2v0c1.1,0.2,1.3,1.6,1.3,2.5c0,0.4,0,1.5,0.5,2H126
		c-0.2-0.4-0.2-0.8-0.2-1.8c0-1.3-0.6-1.6-1.3-1.6h-3.1v3.4h-2.5V54.9z M121.4,59h3.3c0.6,0,1.2-0.3,1.2-1.2c0-0.9-0.7-1.1-1.3-1.1
		h-3.2V59z"/>
	<path class="st2" d="M139,54.9h3.7v9.2h-2.4v-7.3h0l-2.9,7.3h-2.1l-2.9-7.3h0v7.3h-2.4v-9.2h3.7l2.7,6.6L139,54.9z"/>
	<path class="st2" d="M151,62.2h-4.2l-0.7,1.9h-2.7l4-9.2h3l4,9.2h-2.7L151,62.2z M148.9,56.9l-1.4,3.6h2.9L148.9,56.9z"/>
	<path class="st2" d="M162.9,54.9h2.4v9.2h-2.7l-5-6.4h0v6.4h-2.4v-9.2h2.9l4.8,6.4h0V54.9z"/>
	<path class="st2" d="M167,54.9h2.5v7.3h5.6v1.8H167V54.9z"/>
	<path class="st2" d="M183.1,62.2h-4.2l-0.7,1.9h-2.7l4-9.2h3l4,9.2h-2.7L183.1,62.2z M181,56.9l-1.4,3.6h2.9L181,56.9z"/>
	<path class="st2" d="M192.6,59h4.7v5.1H196l-0.3-1.1c-0.9,0.9-2.3,1.3-3.9,1.3c-3.3,0-5.4-1.4-5.4-4.8c0-2.8,2-4.8,5.4-4.8
		c2.5,0,4.9,0.7,5.4,3.3h-2.8c-0.4-1.2-1.4-1.5-2.3-1.5c-2.3,0-3.1,1.7-3.1,3.1c0,1.4,0.8,3.1,3.1,3.1c1.4,0,2.4-0.5,2.7-2h-2.2V59z
		"/>
	<path class="st2" d="M198.9,54.9h8.6v1.7h-6.1v1.9h5.8v1.7h-5.8v2.1h6.1v1.7h-8.6V54.9z"/>
</g>
</svg>
